<mxfile host="65bd71144e">
    <diagram id="WP1fJNG_0dNxapAXiVq9" name="Page-1">
        <mxGraphModel dx="1523" dy="988" grid="1" gridSize="10" guides="1" tooltips="1" connect="1" arrows="1" fold="1" page="1" pageScale="1" pageWidth="850" pageHeight="1100" math="0" shadow="0">
            <root>
                <mxCell id="0"/>
                <mxCell id="1" parent="0"/>
                <mxCell id="19" style="edgeStyle=none;html=1;exitX=0.5;exitY=1;exitDx=0;exitDy=0;exitPerimeter=0;entryX=0.5;entryY=0;entryDx=0;entryDy=0;strokeColor=#FFFF66;" edge="1" parent="1" source="2" target="5">
                    <mxGeometry relative="1" as="geometry"/>
                </mxCell>
                <mxCell id="2" value="Start" style="strokeWidth=2;html=1;shape=mxgraph.flowchart.start_1;whiteSpace=wrap;fillColor=#0050ef;fontColor=#ffffff;strokeColor=#FFFF66;" vertex="1" parent="1">
                    <mxGeometry x="150" y="100" width="100" height="60" as="geometry"/>
                </mxCell>
                <mxCell id="3" value="end" style="strokeWidth=2;html=1;shape=mxgraph.flowchart.start_1;whiteSpace=wrap;fillColor=#0050ef;fontColor=#ffffff;strokeColor=#FFFF66;" vertex="1" parent="1">
                    <mxGeometry x="370" y="940" width="100" height="60" as="geometry"/>
                </mxCell>
                <mxCell id="20" style="edgeStyle=none;html=1;exitX=0.5;exitY=1;exitDx=0;exitDy=0;entryX=0.5;entryY=0;entryDx=0;entryDy=0;entryPerimeter=0;strokeColor=#FFFF66;" edge="1" parent="1" source="5" target="8">
                    <mxGeometry relative="1" as="geometry"/>
                </mxCell>
                <mxCell id="5" value="&lt;span&gt;&#9;&lt;/span&gt;&lt;span&gt;Get min,max,&lt;br&gt;interval&lt;/span&gt;" style="shape=parallelogram;perimeter=parallelogramPerimeter;whiteSpace=wrap;html=1;fixedSize=1;fillColor=#1ba1e2;fontColor=#ffffff;strokeColor=#FFFF66;" vertex="1" parent="1">
                    <mxGeometry x="140" y="200" width="120" height="60" as="geometry"/>
                </mxCell>
                <mxCell id="6" value="Print&lt;br&gt;invaid interval" style="shape=parallelogram;perimeter=parallelogramPerimeter;whiteSpace=wrap;html=1;fixedSize=1;fillColor=#1ba1e2;fontColor=#ffffff;strokeColor=#FFFF66;" vertex="1" parent="1">
                    <mxGeometry x="370" y="310" width="120" height="60" as="geometry"/>
                </mxCell>
                <mxCell id="7" value="Print sum" style="shape=parallelogram;perimeter=parallelogramPerimeter;whiteSpace=wrap;html=1;fixedSize=1;fillColor=#1ba1e2;fontColor=#ffffff;strokeColor=#FFFF66;" vertex="1" parent="1">
                    <mxGeometry x="610" y="470" width="120" height="60" as="geometry"/>
                </mxCell>
                <mxCell id="21" style="edgeStyle=none;html=1;entryX=0;entryY=0.5;entryDx=0;entryDy=0;strokeColor=#FFFF66;" edge="1" parent="1" source="8" target="6">
                    <mxGeometry relative="1" as="geometry"/>
                </mxCell>
                <mxCell id="22" style="edgeStyle=none;html=1;exitX=0.5;exitY=1;exitDx=0;exitDy=0;exitPerimeter=0;entryX=0.5;entryY=0;entryDx=0;entryDy=0;strokeColor=#FFFF66;" edge="1" parent="1" source="8" target="10">
                    <mxGeometry relative="1" as="geometry"/>
                </mxCell>
                <mxCell id="8" value="(max-min)mod&lt;br&gt;unterval =0" style="strokeWidth=2;html=1;shape=mxgraph.flowchart.decision;whiteSpace=wrap;fillColor=#a20025;fontColor=#ffffff;strokeColor=#FFFF66;" vertex="1" parent="1">
                    <mxGeometry x="120" y="290" width="160" height="100" as="geometry"/>
                </mxCell>
                <mxCell id="27" style="edgeStyle=none;html=1;entryX=0.5;entryY=0;entryDx=0;entryDy=0;strokeColor=#FFFF66;" edge="1" parent="1" source="9" target="13">
                    <mxGeometry relative="1" as="geometry"/>
                </mxCell>
                <mxCell id="28" style="edgeStyle=none;html=1;strokeColor=#FFFF66;" edge="1" parent="1" source="9" target="7">
                    <mxGeometry relative="1" as="geometry"/>
                </mxCell>
                <mxCell id="9" value="i &amp;lt;= n" style="strokeWidth=2;html=1;shape=mxgraph.flowchart.decision;whiteSpace=wrap;fillColor=#a20025;fontColor=#ffffff;strokeColor=#FFFF66;" vertex="1" parent="1">
                    <mxGeometry x="340" y="450" width="160" height="100" as="geometry"/>
                </mxCell>
                <mxCell id="23" style="edgeStyle=none;html=1;entryX=0.5;entryY=0;entryDx=0;entryDy=0;strokeColor=#FFFF66;" edge="1" parent="1" source="10" target="11">
                    <mxGeometry relative="1" as="geometry"/>
                </mxCell>
                <mxCell id="10" value="n&lt;br&gt;=&lt;br&gt;(max-min)/interval" style="rounded=1;whiteSpace=wrap;html=1;fillColor=#008a00;fontColor=#ffffff;strokeColor=#FFFF66;" vertex="1" parent="1">
                    <mxGeometry x="125" y="440" width="150" height="75" as="geometry"/>
                </mxCell>
                <mxCell id="24" style="edgeStyle=none;html=1;entryX=0.458;entryY=0.006;entryDx=0;entryDy=0;entryPerimeter=0;strokeColor=#FFFF66;" edge="1" parent="1" source="11" target="12">
                    <mxGeometry relative="1" as="geometry"/>
                </mxCell>
                <mxCell id="11" value="i = 1" style="rounded=1;whiteSpace=wrap;html=1;fillColor=#008a00;fontColor=#ffffff;strokeColor=#FFFF66;" vertex="1" parent="1">
                    <mxGeometry x="125" y="560" width="150" height="75" as="geometry"/>
                </mxCell>
                <mxCell id="12" value="sum = 0&lt;span style=&quot;color: rgba(0 , 0 , 0 , 0) ; font-family: monospace ; font-size: 0px&quot;&gt;%3CmxGraphModel%3E%3Croot%3E%3CmxCell%20id%3D%220%22%2F%3E%3CmxCell%20id%3D%221%22%20parent%3D%220%22%2F%3E%3CmxCell%20id%3D%222%22%20value%3D%22i%20%3D%201%22%20style%3D%22rounded%3D1%3BwhiteSpace%3Dwrap%3Bhtml%3D1%3B%22%20vertex%3D%221%22%20parent%3D%221%22%3E%3CmxGeometry%20x%3D%22210%22%20y%3D%22200%22%20width%3D%22150%22%20height%3D%2275%22%20as%3D%22geometry%22%2F%3E%3C%2FmxCell%3E%3C%2Froot%3E%3C%2FmxGraphModel%3E&lt;/span&gt;" style="rounded=1;whiteSpace=wrap;html=1;fillColor=#008a00;fontColor=#ffffff;strokeColor=#FFFF66;" vertex="1" parent="1">
                    <mxGeometry x="130" y="680" width="150" height="75" as="geometry"/>
                </mxCell>
                <mxCell id="26" style="edgeStyle=none;html=1;entryX=0.5;entryY=0;entryDx=0;entryDy=0;strokeColor=#FFFF66;" edge="1" parent="1" source="13" target="15">
                    <mxGeometry relative="1" as="geometry"/>
                </mxCell>
                <mxCell id="13" value="sum&lt;br&gt;=&lt;br&gt;sum + min" style="rounded=1;whiteSpace=wrap;html=1;fillColor=#008a00;fontColor=#ffffff;strokeColor=#FFFF66;" vertex="1" parent="1">
                    <mxGeometry x="345" y="590" width="150" height="75" as="geometry"/>
                </mxCell>
                <mxCell id="14" value="i = i + 1" style="rounded=1;whiteSpace=wrap;html=1;fillColor=#008a00;fontColor=#ffffff;strokeColor=#FFFF66;" vertex="1" parent="1">
                    <mxGeometry x="345" y="820" width="150" height="75" as="geometry"/>
                </mxCell>
                <mxCell id="25" style="edgeStyle=none;html=1;entryX=0.5;entryY=0;entryDx=0;entryDy=0;strokeColor=#FFFF66;" edge="1" parent="1" source="15" target="14">
                    <mxGeometry relative="1" as="geometry"/>
                </mxCell>
                <mxCell id="15" value="min&lt;br&gt;=&lt;br&gt;min + interval" style="rounded=1;whiteSpace=wrap;html=1;fillColor=#008a00;fontColor=#ffffff;strokeColor=#FFFF66;" vertex="1" parent="1">
                    <mxGeometry x="345" y="710" width="150" height="75" as="geometry"/>
                </mxCell>
                <mxCell id="29" value="" style="edgeStyle=segmentEdgeStyle;endArrow=classic;html=1;exitX=0.5;exitY=0;exitDx=0;exitDy=0;entryX=1;entryY=0.5;entryDx=0;entryDy=0;strokeColor=#FFFF66;" edge="1" parent="1" source="6" target="5">
                    <mxGeometry width="50" height="50" relative="1" as="geometry">
                        <mxPoint x="295" y="230" as="sourcePoint"/>
                        <mxPoint x="345" y="180" as="targetPoint"/>
                        <Array as="points">
                            <mxPoint x="430" y="230"/>
                        </Array>
                    </mxGeometry>
                </mxCell>
                <mxCell id="31" value="" style="edgeStyle=segmentEdgeStyle;endArrow=classic;html=1;exitX=0.5;exitY=1;exitDx=0;exitDy=0;entryX=1;entryY=0.5;entryDx=0;entryDy=0;entryPerimeter=0;strokeColor=#FFFF66;" edge="1" parent="1" source="7" target="3">
                    <mxGeometry width="50" height="50" relative="1" as="geometry">
                        <mxPoint x="759.98" y="715" as="sourcePoint"/>
                        <mxPoint x="579.98" y="635" as="targetPoint"/>
                        <Array as="points">
                            <mxPoint x="670" y="970"/>
                        </Array>
                    </mxGeometry>
                </mxCell>
                <mxCell id="35" style="edgeStyle=none;html=1;entryX=1;entryY=0.5;entryDx=0;entryDy=0;strokeColor=#FFFF66;" edge="1" parent="1" target="12">
                    <mxGeometry relative="1" as="geometry">
                        <mxPoint x="280" y="717.5" as="sourcePoint"/>
                    </mxGeometry>
                </mxCell>
                <mxCell id="37" value="" style="edgeStyle=segmentEdgeStyle;endArrow=classic;html=1;entryX=0;entryY=0.5;entryDx=0;entryDy=0;entryPerimeter=0;exitX=0;exitY=0.5;exitDx=0;exitDy=0;strokeColor=#FFFF66;" edge="1" parent="1" source="14" target="9">
                    <mxGeometry width="50" height="50" relative="1" as="geometry">
                        <mxPoint x="560" y="330" as="sourcePoint"/>
                        <mxPoint x="540" y="330" as="targetPoint"/>
                        <Array as="points">
                            <mxPoint x="300" y="858"/>
                            <mxPoint x="300" y="500"/>
                        </Array>
                    </mxGeometry>
                </mxCell>
                <mxCell id="38" value="" style="line;strokeWidth=2;html=1;strokeColor=#FFFF66;" vertex="1" parent="1">
                    <mxGeometry x="280" y="712.5" width="20" height="10" as="geometry"/>
                </mxCell>
                <mxCell id="39" value="Yes" style="text;html=1;align=center;verticalAlign=middle;resizable=0;points=[];autosize=1;strokeColor=#FFFF66;fillColor=none;" vertex="1" parent="1">
                    <mxGeometry x="200" y="400" width="40" height="20" as="geometry"/>
                </mxCell>
                <mxCell id="40" value="No" style="text;html=1;align=center;verticalAlign=middle;resizable=0;points=[];autosize=1;strokeColor=#FFFF66;fillColor=none;" vertex="1" parent="1">
                    <mxGeometry x="300" y="310" width="30" height="20" as="geometry"/>
                </mxCell>
                <mxCell id="41" value="Yes" style="text;html=1;align=center;verticalAlign=middle;resizable=0;points=[];autosize=1;strokeColor=#FFFF66;fillColor=none;" vertex="1" parent="1">
                    <mxGeometry x="450" y="550" width="40" height="20" as="geometry"/>
                </mxCell>
                <mxCell id="42" value="No" style="text;html=1;align=center;verticalAlign=middle;resizable=0;points=[];autosize=1;strokeColor=#FFFF66;fillColor=none;" vertex="1" parent="1">
                    <mxGeometry x="540" y="470" width="30" height="20" as="geometry"/>
                </mxCell>
            </root>
        </mxGraphModel>
    </diagram>
</mxfile>